<?xml version="1.0" encoding="UTF-8"?>
<svg id="Layer_1" data-name="Layer 1" xmlns="http://www.w3.org/2000/svg" viewBox="0 0 334.19 164.74">
  <defs>
    <style>
      .cls-1 {
        fill: #fff;
      }

      .cls-2 {
        fill: #00aeef;
      }
    </style>
  </defs>
  <g>
    <path class="cls-1" d="m37.46,146.39c.3.46.45,1.03.45,1.72,0,.94-.31,1.67-.92,2.18-.61.51-1.5.77-2.67.77h-4.55v-10.88h4.29c1.08,0,1.92.25,2.5.75s.88,1.19.88,2.08c0,.54-.1,1.02-.31,1.43-.21.41-.5.74-.86.96.51.2.91.53,1.2.99Zm-6-4.62v3h2.41c.59,0,1.05-.13,1.37-.38s.48-.62.48-1.11-.16-.87-.48-1.13-.77-.38-1.37-.38h-2.41Zm4.73,6.14c0-1.05-.66-1.57-1.98-1.57h-2.75v3.14h2.75c1.32,0,1.98-.52,1.98-1.57Z"/>
    <path class="cls-1" d="m45.67,148.54h-4.58l-.9,2.52h-1.75l4.12-10.88h1.68l4.14,10.88h-1.78l-.92-2.52Zm-.56-1.59l-1.73-4.76-1.71,4.76h3.44Z"/>
    <path class="cls-1" d="m57.67,140.18v10.88h-1.4l-5.05-7.37v7.37h-1.69v-10.88h1.4l5.05,7.37v-7.37h1.69Z"/>
    <path class="cls-1" d="m66.39,145.5h1.61v4.34c-.47.45-1.02.79-1.65,1.03-.63.24-1.27.36-1.94.36-.93,0-1.78-.24-2.53-.72-.75-.48-1.34-1.15-1.77-2-.43-.85-.64-1.81-.64-2.88s.21-2.03.64-2.88c.43-.85,1.02-1.52,1.77-2,.75-.48,1.6-.72,2.55-.72.77,0,1.47.15,2.09.45.63.3,1.16.74,1.58,1.32l-1.07,1.24c-.7-.83-1.54-1.24-2.53-1.24-.65,0-1.22.16-1.72.48-.5.32-.89.77-1.18,1.35s-.42,1.24-.42,1.99.14,1.38.42,1.96c.28.58.68,1.04,1.18,1.37.5.33,1.07.5,1.71.5.71,0,1.34-.19,1.88-.56v-3.39Z"/>
    <path class="cls-1" d="m70.23,140.18h1.7v9.17h4.79v1.71h-6.49v-10.88Z"/>
    <path class="cls-1" d="m84.08,148.54h-4.58l-.9,2.52h-1.75l4.12-10.88h1.68l4.14,10.88h-1.78l-.92-2.52Zm-.56-1.59l-1.73-4.76-1.71,4.76h3.44Z"/>
    <path class="cls-1" d="m87.94,140.18h4c.98,0,1.85.23,2.61.68.76.45,1.35,1.09,1.77,1.91.42.82.63,1.78.63,2.85s-.21,2.03-.63,2.85c-.42.82-1.01,1.46-1.77,1.91-.76.45-1.63.68-2.61.68h-4v-10.88Zm3.93,9.17c.67,0,1.26-.15,1.77-.46s.9-.74,1.18-1.31c.28-.56.41-1.22.41-1.97s-.14-1.4-.41-1.97c-.27-.57-.67-1-1.18-1.31s-1.1-.46-1.77-.46h-2.23v7.46h2.23Z"/>
    <path class="cls-1" d="m105.63,149.37v1.69h-6.87v-10.88h6.69v1.69h-4.99v2.83h4.42v1.66h-4.42v3h5.17Z"/>
    <path class="cls-1" d="m108.32,150.86c-.66-.24-1.18-.55-1.56-.95l.59-1.57c.38.35.84.64,1.38.86.55.22,1.09.33,1.64.33.68,0,1.19-.13,1.53-.39s.5-.6.5-1.03c0-.31-.09-.57-.28-.77s-.43-.36-.71-.47-.68-.24-1.18-.39c-.7-.2-1.26-.39-1.7-.59-.43-.2-.8-.5-1.11-.92s-.46-.99-.46-1.7c0-.6.14-1.15.41-1.64.28-.49.69-.88,1.24-1.17.55-.29,1.23-.43,2.04-.43.56,0,1.11.08,1.65.25.54.17,1.01.4,1.4.72l-.54,1.57c-.4-.28-.82-.49-1.26-.64-.44-.15-.86-.22-1.27-.22-.67,0-1.17.13-1.5.4s-.49.63-.49,1.07c0,.31.09.57.28.76.19.2.43.35.71.47s.68.24,1.18.39c.68.19,1.24.38,1.68.58.44.2.81.51,1.12.92.31.41.46.97.46,1.68,0,.6-.14,1.15-.41,1.63-.27.49-.69.88-1.25,1.17s-1.24.44-2.04.44c-.71,0-1.39-.12-2.05-.36Z"/>
    <path class="cls-1" d="m123.9,140.18v10.88h-1.7v-4.66h-4.74v4.66h-1.7v-10.88h1.7v4.49h4.74v-4.49h1.7Z"/>
    <path class="cls-1" d="m135.91,148.54h-4.58l-.9,2.52h-1.75l4.12-10.88h1.68l4.14,10.88h-1.78l-.92-2.52Zm-.56-1.59l-1.73-4.76-1.71,4.76h3.44Z"/>
    <path class="cls-1" d="m139.78,140.18h1.7v10.88h-1.7v-10.88Z"/>
    <path class="cls-1" d="m149.95,151.06l-1.87-3.19c-.08,0-.2.02-.35.02h-2.07v3.17h-1.7v-10.88h3.77c.79,0,1.49.16,2.08.47.59.31,1.04.76,1.35,1.34.31.58.47,1.27.47,2.07s-.17,1.52-.5,2.11-.82,1.03-1.45,1.32l2.11,3.58h-1.83Zm-.62-8.61c-.38-.37-.95-.56-1.69-.56h-1.99v4.34h1.99c.74,0,1.3-.19,1.69-.57.38-.38.58-.91.58-1.61s-.19-1.23-.58-1.6Z"/>
    <path class="cls-1" d="m165.27,140.18v10.88h-1.4l-5.05-7.37v7.37h-1.69v-10.88h1.4l5.05,7.37v-7.37h1.69Z"/>
    <path class="cls-1" d="m173.68,148.54h-4.58l-.9,2.52h-1.75l4.12-10.88h1.68l4.14,10.88h-1.78l-.92-2.52Zm-.56-1.59l-1.73-4.76-1.71,4.76h3.44Z"/>
    <path class="cls-1" d="m185.43,140.18l-3.99,10.88h-1.68l-4-10.88h1.85l3.05,8.39,3.08-8.39h1.7Z"/>
    <path class="cls-1" d="m186.4,140.18h1.7v10.88h-1.7v-10.88Z"/>
    <path class="cls-1" d="m196.83,145.5h1.61v4.34c-.47.45-1.02.79-1.65,1.03-.63.24-1.27.36-1.94.36-.93,0-1.78-.24-2.53-.72-.75-.48-1.34-1.15-1.77-2-.43-.85-.64-1.81-.64-2.88s.21-2.03.64-2.88c.43-.85,1.02-1.52,1.77-2,.75-.48,1.6-.72,2.55-.72.77,0,1.47.15,2.09.45.63.3,1.16.74,1.58,1.32l-1.07,1.24c-.7-.83-1.54-1.24-2.53-1.24-.65,0-1.22.16-1.72.48-.5.32-.89.77-1.18,1.35s-.42,1.24-.42,1.99.14,1.38.42,1.96c.28.58.68,1.04,1.18,1.37.5.33,1.07.5,1.71.5.71,0,1.34-.19,1.88-.56v-3.39Z"/>
    <path class="cls-1" d="m206.62,148.54h-4.58l-.9,2.52h-1.75l4.12-10.88h1.68l4.14,10.88h-1.78l-.92-2.52Zm-.56-1.59l-1.73-4.76-1.71,4.76h3.44Z"/>
    <path class="cls-1" d="m211.88,141.89h-3.04v-1.71h7.77v1.71h-3.04v9.17h-1.7v-9.17Z"/>
    <path class="cls-1" d="m217.9,140.18h1.7v10.88h-1.7v-10.88Z"/>
    <path class="cls-1" d="m223.83,150.5c-.75-.48-1.34-1.15-1.77-2.01-.43-.85-.64-1.81-.64-2.87s.21-2.01.64-2.87c.43-.85,1.02-1.52,1.77-2,.75-.48,1.59-.72,2.53-.72s1.78.24,2.53.72c.75.48,1.34,1.15,1.77,2,.43.85.64,1.81.64,2.88s-.21,2.03-.64,2.88c-.43.85-1.02,1.52-1.77,2-.75.48-1.59.72-2.53.72s-1.78-.24-2.53-.72Zm4.18-1.54c.49-.33.87-.78,1.15-1.37.28-.58.42-1.24.42-1.97s-.14-1.38-.42-1.97c-.28-.59-.66-1.04-1.15-1.37-.49-.33-1.04-.49-1.65-.49s-1.16.16-1.65.49c-.49.33-.87.78-1.15,1.37-.28.58-.42,1.24-.42,1.97s.14,1.38.42,1.97c.28.59.66,1.04,1.15,1.37.49.33,1.04.49,1.65.49s1.16-.16,1.65-.49Z"/>
    <path class="cls-1" d="m241.24,140.18v10.88h-1.4l-5.05-7.37v7.37h-1.69v-10.88h1.4l5.05,7.37v-7.37h1.69Z"/>
    <path class="cls-1" d="m254.19,149.37v1.69h-6.87v-10.88h6.69v1.69h-4.99v2.83h4.42v1.66h-4.42v3h5.17Z"/>
    <path class="cls-1" d="m264.23,140.18v10.88h-1.4l-5.05-7.37v7.37h-1.69v-10.88h1.4l5.05,7.37v-7.37h1.69Z"/>
    <path class="cls-1" d="m268.55,141.89h-3.04v-1.71h7.77v1.71h-3.04v9.17h-1.7v-9.17Z"/>
    <path class="cls-1" d="m281.44,149.37v1.69h-6.87v-10.88h6.69v1.69h-4.99v2.83h4.42v1.66h-4.42v3h5.17Z"/>
    <path class="cls-1" d="m289.33,151.06l-1.87-3.19c-.08,0-.2.02-.35.02h-2.07v3.17h-1.7v-10.88h3.77c.79,0,1.49.16,2.08.47.59.31,1.04.76,1.35,1.34.31.58.47,1.27.47,2.07s-.17,1.52-.5,2.11-.82,1.03-1.45,1.32l2.11,3.58h-1.83Zm-.62-8.61c-.38-.37-.95-.56-1.69-.56h-1.99v4.34h1.99c.74,0,1.3-.19,1.69-.57.38-.38.58-.91.58-1.61s-.19-1.23-.58-1.6Z"/>
    <path class="cls-1" d="m298.75,140.65c.59.31,1.04.76,1.35,1.34.31.58.47,1.27.47,2.07s-.16,1.47-.47,2.06c-.31.59-.77,1.03-1.35,1.34-.59.31-1.28.47-2.08.47h-2.07v3.14h-1.7v-10.88h3.77c.79,0,1.49.16,2.08.47Zm-.46,5c.38-.37.58-.91.58-1.6s-.19-1.23-.58-1.6c-.38-.37-.95-.56-1.69-.56h-1.99v4.32h1.99c.74,0,1.3-.19,1.69-.56Z"/>
    <path class="cls-1" d="m308.27,151.06l-1.87-3.19c-.08,0-.2.02-.35.02h-2.07v3.17h-1.7v-10.88h3.77c.79,0,1.49.16,2.08.47.59.31,1.04.76,1.35,1.34.31.58.47,1.27.47,2.07s-.17,1.52-.5,2.11-.82,1.03-1.45,1.32l2.11,3.58h-1.83Zm-.62-8.61c-.38-.37-.95-.56-1.69-.56h-1.99v4.34h1.99c.74,0,1.3-.19,1.69-.57.38-.38.58-.91.58-1.61s-.19-1.23-.58-1.6Z"/>
    <path class="cls-1" d="m311.84,140.18h1.7v10.88h-1.7v-10.88Z"/>
    <path class="cls-1" d="m316.81,150.86c-.66-.24-1.18-.55-1.56-.95l.59-1.57c.38.35.84.64,1.38.86.55.22,1.09.33,1.64.33.68,0,1.19-.13,1.53-.39s.5-.6.5-1.03c0-.31-.09-.57-.28-.77s-.43-.36-.71-.47-.68-.24-1.18-.39c-.7-.2-1.26-.39-1.7-.59-.43-.2-.8-.5-1.11-.92s-.46-.99-.46-1.7c0-.6.14-1.15.41-1.64.28-.49.69-.88,1.24-1.17.55-.29,1.23-.43,2.04-.43.56,0,1.11.08,1.65.25.54.17,1.01.4,1.4.72l-.54,1.57c-.4-.28-.82-.49-1.26-.64-.44-.15-.86-.22-1.27-.22-.67,0-1.17.13-1.5.4s-.49.63-.49,1.07c0,.31.09.57.28.76.19.2.43.35.71.47s.68.24,1.18.39c.68.19,1.24.38,1.68.58.44.2.81.51,1.12.92.31.41.46.97.46,1.68,0,.6-.14,1.15-.41,1.63-.27.49-.69.88-1.25,1.17s-1.24.44-2.04.44c-.71,0-1.39-.12-2.05-.36Z"/>
    <path class="cls-1" d="m331.12,149.37v1.69h-6.87v-10.88h6.69v1.69h-4.99v2.83h4.42v1.66h-4.42v3h5.17Z"/>
  </g>
  <g>
    <path class="cls-1" d="m171.85,131.28h13.57v-40.13c0-3.62-.74-7.12-2.21-10.5-1.48-3.38-3.74-6.59-6.78-9.64-2.95-3.04-6.62-5.33-11-6.86-4.38-1.52-9.38-2.29-15-2.29-5.9,0-11.09.86-15.57,2.57-4.48,1.72-8.24,4.28-11.28,7.71-3.05,3.43-5.33,7.19-6.86,11.29-1.52,4.1-2.29,8.52-2.29,13.28,0,5.43.78,10.31,2.36,14.64,1.57,4.34,3.93,8.17,7.07,11.5,3.14,3.24,6.59,5.64,10.35,7.21,3.76,1.57,7.83,2.36,12.21,2.36h1.86c2.47,0,4.66-.12,6.57-.36,1.9-.24,3.52-.55,4.86-.93,1.33-.48,2.62-1.02,3.85-1.64,1.24-.62,2.43-1.31,3.57-2.07v-.14c.09-.09.19-.24.29-.43v-15.57c-.48.48-.95.93-1.43,1.36-.48.43-.95.88-1.43,1.36-.48.38-.93.78-1.36,1.21-.43.43-.88.78-1.36,1.07-.38.38-.81.71-1.29,1-.48.29-.91.57-1.29.86-.48.19-.93.38-1.36.57-.43.19-.88.38-1.35.57-.95.38-1.93.64-2.93.79-1,.14-2.07.21-3.21.21h-1.93c-.14,0-.31-.05-.5-.14h-.71c-2.57-.29-5.03-.98-7.36-2.07-2.33-1.09-4.6-2.55-6.78-4.36-2.1-1.9-3.67-4.26-4.71-7.07-1.05-2.81-1.57-6.12-1.57-9.93.19-2.86.67-5.4,1.43-7.64.76-2.24,1.76-4.12,3-5.64,1.33-1.62,2.71-3.02,4.14-4.22,1.43-1.19,2.9-2.12,4.43-2.78.86-.48,1.72-.86,2.57-1.14.86-.29,1.71-.48,2.57-.57.86-.19,1.64-.33,2.36-.43.71-.09,1.4-.14,2.07-.14,4.19,0,7.76.48,10.71,1.43,2.95.95,5.24,2.38,6.86,4.29,1.62,1.81,2.83,3.74,3.64,5.78.81,2.05,1.21,4.12,1.21,6.21v39.42Z"/>
    <path class="cls-1" d="m241.76,84.64c.62,2.05.93,4.12.93,6.21v40.42h13.57v-44.14c0-3.43-.43-6.47-1.29-9.14-.86-2.66-2.14-4.9-3.85-6.71-1.72-1.9-3.48-3.52-5.29-4.86-1.81-1.33-3.71-2.43-5.71-3.28-1.14-.48-2.26-.86-3.36-1.14-1.09-.29-2.17-.52-3.21-.71-1.05-.19-2.02-.33-2.93-.43-.91-.09-1.74-.14-2.5-.14-4.76,0-9,.74-12.71,2.21-3.71,1.48-6.95,3.64-9.71,6.5-2.67,2.95-4.67,6.12-6,9.5-1.33,3.38-2,6.98-2,10.78v41.56h12.43v-41.28c.29-2.19.83-4.26,1.64-6.21.81-1.95,1.93-3.78,3.36-5.5,1.43-1.71,3.12-3,5.07-3.86,1.95-.86,4.21-1.28,6.78-1.28,2.76,0,5.14.48,7.14,1.43,2,.95,3.62,2.38,4.85,4.29,1.24,1.81,2.17,3.74,2.79,5.78Z"/>
    <path class="cls-2" d="m3.67,63.67c-.55,0-1,.45-1,1v10.69c0,.55.45,1,1,1s1-.45,1-1v-10.69c0-.55-.45-1-1-1Z"/>
    <path class="cls-2" d="m7.45,60.41c-.55,0-1,.45-1,1v12.86c0,.55.45,1,1,1s1-.45,1-1v-12.86c0-.55-.45-1-1-1Z"/>
    <path class="cls-2" d="m11.22,57.15c-.55,0-1,.45-1,1v14.79c0,.55.45,1,1,1s1-.45,1-1v-14.79c0-.55-.45-1-1-1Z"/>
    <path class="cls-2" d="m15,54.02c-.55,0-1,.45-1,1v16.67c0,.55.45,1,1,1s1-.45,1-1v-16.67c0-.55-.45-1-1-1Z"/>
    <path class="cls-2" d="m18.78,50.89c-.55,0-1,.45-1,1v18.63c0,.55.45,1,1,1s1-.45,1-1v-18.63c0-.55-.45-1-1-1Z"/>
    <path class="cls-2" d="m22.55,93.74c-.55,0-1,.45-1,1v8.02c0,.55.45,1,1,1s1-.45,1-1v-8.02c0-.55-.45-1-1-1Z"/>
    <path class="cls-2" d="m26.33,90.32c-.55,0-1,.45-1,1v9.94c0,.55.45,1,1,1s1-.45,1-1v-9.94c0-.55-.45-1-1-1Z"/>
    <path class="cls-2" d="m30.11,86.72c-.55,0-1,.45-1,1v12.11c0,.55.45,1,1,1s1-.45,1-1v-12.11c0-.55-.45-1-1-1Z"/>
    <path class="cls-2" d="m37.66,98.08c.55,0,1-.45,1-1V10.12c0-.55-.45-1-1-1s-1,.45-1,1v86.96c0,.55.45,1,1,1Z"/>
    <path class="cls-2" d="m41.44,96.75c.55,0,1-.45,1-1V3.59c0-.55-.45-1-1-1s-1,.45-1,1v92.16c0,.55.45,1,1,1Z"/>
    <path class="cls-2" d="m45.22,97.92c.55,0,1-.45,1-1V9.41c0-.55-.45-1-1-1s-1,.45-1,1v87.5c0,.55.45,1,1,1Z"/>
    <path class="cls-2" d="m49,66.55c.55,0,1-.45,1-1V27.71c0-.55-.45-1-1-1s-1,.45-1,1v37.84c0,.55.45,1,1,1Z"/>
    <path class="cls-2" d="m52.77,67.72c.55,0,1-.45,1-1v-24.23c0-.55-.45-1-1-1s-1,.45-1,1v24.23c0,.55.45,1,1,1Z"/>
    <path class="cls-2" d="m56.55,69.01c.55,0,1-.45,1-1v-22.39c0-.55-.45-1-1-1s-1,.45-1,1v22.39c0,.55.45,1,1,1Z"/>
    <path class="cls-2" d="m60.33,70.23c.55,0,1-.45,1-1v-20.51c0-.55-.45-1-1-1s-1,.45-1,1v20.51c0,.55.45,1,1,1Z"/>
    <path class="cls-2" d="m64.1,71.44c.55,0,1-.45,1-1v-18.62c0-.55-.45-1-1-1s-1,.45-1,1v18.62c0,.55.45,1,1,1Z"/>
    <path class="cls-2" d="m49,99.42c.55,0,1-.45,1-1v-14.2c0-.55-.45-1-1-1s-1,.45-1,1v14.2c0,.55.45,1,1,1Z"/>
    <path class="cls-2" d="m52.77,100.84c.55,0,1-.45,1-1v-12.2c0-.55-.45-1-1-1s-1,.45-1,1v12.2c0,.55.45,1,1,1Z"/>
    <path class="cls-2" d="m56.55,102.26c.55,0,1-.45,1-1v-10.27c0-.55-.45-1-1-1s-1,.45-1,1v10.27c0,.55.45,1,1,1Z"/>
    <path class="cls-2" d="m60.33,103.85c.55,0,1-.45,1-1v-8.44c0-.55-.45-1-1-1s-1,.45-1,1v8.44c0,.55.45,1,1,1Z"/>
    <path class="cls-2" d="m67.88,72.61c.55,0,1-.45,1-1v-16.62c0-.55-.45-1-1-1s-1,.45-1,1v16.62c0,.55.45,1,1,1Z"/>
    <path class="cls-2" d="m71.66,73.86c.55,0,1-.45,1-1v-14.64c0-.55-.45-1-1-1s-1,.45-1,1v14.64c0,.55.45,1,1,1Z"/>
    <path class="cls-2" d="m75.44,75.15c.55,0,1-.45,1-1v-12.84c0-.55-.45-1-1-1s-1,.45-1,1v12.84c0,.55.45,1,1,1Z"/>
    <path class="cls-2" d="m79.21,76.37c.55,0,1-.45,1-1v-10.89c0-.55-.45-1-1-1s-1,.45-1,1v10.89c0,.55.45,1,1,1Z"/>
    <path class="cls-2" d="m22.55,47.76c-.55,0-1,.45-1,1v20.51c0,.55.45,1,1,1s1-.45,1-1v-20.51c0-.55-.45-1-1-1Z"/>
    <path class="cls-2" d="m26.33,44.62c-.55,0-1,.45-1,1v22.48c0,.55.45,1,1,1s1-.45,1-1v-22.48c0-.55-.45-1-1-1Z"/>
    <path class="cls-2" d="m30.11,41.45c-.55,0-1,.45-1,1v24.39c0,.55.45,1,1,1s1-.45,1-1v-24.39c0-.55-.45-1-1-1Z"/>
    <path class="cls-2" d="m33.89,26.77c-.55,0-1,.45-1,1v70.65c0,.55.45,1,1,1s1-.45,1-1V27.77c0-.55-.45-1-1-1Z"/>
    <path class="cls-1" d="m83.25,71.02c-.41-.17-.73.39-.37.65,6.63,4.75,11.06,13.37,11.06,23.21,0,14.98-11.49,25.52-22.86,25.82-10.22.27-18.94-6.62-21.89-17.57l-6.81-1.71-6.12,2.66c1.87,16.08,16.12,28.59,33.44,28.59,18.59,0,33.65-14.41,33.65-32.18,0-13.17-8.27-24.48-20.11-29.47Z"/>
    <path class="cls-1" d="m318.72,112.58l8.05,8.31c-5.97,6.36-17.66,10.39-27.14,10.39-18.7,0-34.55-14.67-34.55-35.32s14.93-34.93,33.51-34.93c20.52,0,32.34,15.58,32.34,39.61h-52.86c1.69,11.17,9.87,19.22,21.43,19.22,7.01,0,15.19-3.12,19.22-7.27Zm-40.52-22.21h40.26c-1.43-10.39-7.79-17.92-19.35-17.92-10.39,0-18.83,7.01-20.91,17.92Z"/>
  </g>
</svg>